<svg xmlns="http://www.w3.org/2000/svg" viewBox="0 0 47.5 47.5"><defs><clipPath id="a"><path d="M0 38h38V0H0v38Z"/></clipPath></defs><g clip-path="url(#a)" transform="matrix(1.25 0 0 -1.25 0 47.5)"><path fill="#292f33" d="M35.238 9.07c-.704.703-3.856 2.661-6.935 4.364A14.915 14.915 0 0 1 31 22.001c0 8.284-6.716 15-15 15-8.285 0-15-6.716-15-15 0-8.285 6.715-15 15-15 3.158 0 6.086.981 8.504 2.649 1.705-3.081 3.666-6.24 4.37-6.944C30.288 1.292 32 .999 33 1.001c1.176.002 4.054 2.881 4 4-.049.999-.348 2.655-1.762 4.069"/><path fill="#66757f" d="M28 22c0-6.627-5.373-12-12-12S4 15.373 4 22s5.373 12 12 12 12-5.373 12-12"/><path fill="#f5f8fa" d="M17 12c4.863 1.533 4 5 4 9s4.001 6.708.334 9.75c-2.177 1.806-6.751 2.417-8.876 1.625C10.506 31.648 8 30.167 8 27.167s-.058-2.928-1.708-5.625C3.667 17.25 10.125 9.833 17 12"/><path fill="#ffac33" d="M18 19a4 4 0 1 0-8 0 4 4 0 0 0 8 0"/></g></svg>